<svg xmlns="http://www.w3.org/2000/svg" viewBox="0 0 100 80">
  <path d="M22 42c-9 3-14 1-16-5 7-4 13-2 17 2z" fill="#FFE79A" stroke="#c98a1e" stroke-width="3" stroke-linejoin="round"/>
  <path d="M78 42c9 3 14 1 16-5-7-4-13-2-17 2z" fill="#FFE79A" stroke="#c98a1e" stroke-width="3" stroke-linejoin="round"/>
  <circle cx="50" cy="42" r="26" fill="#FFD24A" stroke="#a06a10" stroke-width="6"/>
  <circle cx="50" cy="42" r="15" fill="#FFF6C8"/>
  <circle cx="43" cy="40" r="4.2" fill="#40323a"/>
  <circle cx="57" cy="40" r="4.2" fill="#40323a"/>
  <path d="M45 49c3 3 7 3 10 0" fill="none" stroke="#8d5a1a" stroke-width="3" stroke-linecap="round"/>
  <path d="M66 56c-4 3-6 9-3 14 2 4 14 4 16 0 3-5 1-11-3-14z" fill="#B9713F" stroke="#5c3a22" stroke-width="3" stroke-linejoin="round"/>
  <path d="M67 56c1-2 3-3 7-3s6 1 7 3z" fill="#8a5326" stroke="#5c3a22" stroke-width="2"/>
  <text x="71" y="70" text-anchor="middle" font-family="Baloo 2,sans-serif" font-weight="800" font-size="11" fill="#FFE07A">$</text>
</svg>
