<svg xmlns="http://www.w3.org/2000/svg" viewBox="0 0 100 80">
  <circle cx="50" cy="42" r="36" fill="#FFF3B0" opacity="0.5"/>
  <g stroke="#FFE79A" stroke-width="3" stroke-linecap="round" opacity="0.9">
    <path d="M50 2v10M50 72v6M12 42h-8M96 42h-8M22 16l6 6M78 16l-6 6M22 68l6-6M78 68l-6-6"/>
  </g>
  <path d="M24 40C12 42 5 40 3 33c9-4 18-1 23 4z" fill="#FFF6D8" stroke="#e0b64e" stroke-width="3" stroke-linejoin="round"/>
  <path d="M76 40c12 2 19 0 21-7-9-4-18-1-23 4z" fill="#FFF6D8" stroke="#e0b64e" stroke-width="3" stroke-linejoin="round"/>
  <circle cx="50" cy="42" r="26" fill="#FFDE5C" stroke="#c99020" stroke-width="6"/>
  <circle cx="50" cy="42" r="15" fill="#FFFBE6"/>
  <circle cx="43" cy="40" r="4.2" fill="#40323a"/>
  <circle cx="57" cy="40" r="4.2" fill="#40323a"/>
  <path d="M45 49c3 3 7 3 10 0" fill="none" stroke="#a06a10" stroke-width="3" stroke-linecap="round"/>
  <circle cx="42" cy="35" r="2.4" fill="#ffffff" opacity="0.9"/>
</svg>
