<svg xmlns="http://www.w3.org/2000/svg" viewBox="0 0 100 80">
  <path d="M26 40C10 40 2 34 2 24c12-4 24 0 30 8z" fill="#FFF3D0" stroke="#c98a1e" stroke-width="3" stroke-linejoin="round"/>
  <path d="M74 40c16 0 24-6 24-16-12-4-24 0-30 8z" fill="#FFF3D0" stroke="#c98a1e" stroke-width="3" stroke-linejoin="round"/>
  <path d="M12 30c6-1 12 1 16 5M88 30c-6-1-12 1-16 5" fill="none" stroke="#e8c25e" stroke-width="2" stroke-linecap="round" opacity="0.7"/>
  <circle cx="50" cy="44" r="26" fill="#FFD24A" stroke="#a06a10" stroke-width="6"/>
  <circle cx="50" cy="44" r="15" fill="#FFF6C8"/>
  <circle cx="43" cy="42" r="4.2" fill="#40323a"/>
  <circle cx="57" cy="42" r="4.2" fill="#40323a"/>
  <circle cx="37" cy="49" r="3" fill="#f39a9a" opacity=".8"/>
  <circle cx="63" cy="49" r="3" fill="#f39a9a" opacity=".8"/>
  <path d="M45 51c3 3 7 3 10 0" fill="none" stroke="#8d5a1a" stroke-width="3" stroke-linecap="round"/>
</svg>
