<svg xmlns="http://www.w3.org/2000/svg" viewBox="0 0 128 112">
  <path d="M14 50c0-28 20-42 50-42s50 14 50 42" fill="#A9663C" stroke="#5c3a22" stroke-width="8" stroke-linejoin="round"/>
  <path d="M14 46h100a6 6 0 0 1 6 6v50a6 6 0 0 1-6 6H14a6 6 0 0 1-6-6V52a6 6 0 0 1 6-6Z" fill="#B9713F" stroke="#5c3a22" stroke-width="8"/>
  <path d="M8 56h112" stroke="#F4B860" stroke-width="10"/>
  <path d="M36 10v96m56-96v96" stroke="#E0A45A" stroke-width="9"/>
  <rect x="52" y="50" width="24" height="34" rx="6" fill="#FFE07A" stroke="#5c3a22" stroke-width="5"/>
  <circle cx="64" cy="64" r="4.5" fill="#5c3a22"/>
  <path d="M64 66v9" stroke="#5c3a22" stroke-width="4" stroke-linecap="round"/>
</svg>
