<svg xmlns="http://www.w3.org/2000/svg" viewBox="0 0 144 220">
  <g stroke-linecap="round">
    <path d="M108 30 92 60" stroke="#7a5030" stroke-width="4"/>
    <path d="M118 34 102 62" stroke="#7a5030" stroke-width="4"/>
    <path d="M108 30l-7-8 9 1 1-9 5 7 9-2-6 8Z" fill="#c4553f"/>
    <path d="M118 34l-7-8 9 1 1-9 5 7 9-2-6 8Z" fill="#e6dcae"/>
  </g>
  <path d="M90 56l20 40c3 6-1 12-8 12-6 0-11-3-13-9L80 68Z" fill="#7a4a2e" stroke="#4d2f1e" stroke-width="4" stroke-linejoin="round"/>
  <path d="M39 205c4-27 5-57 12-84h45c8 30 10 58 12 84" fill="#2f4258" stroke="#1c2839" stroke-width="7" stroke-linejoin="round"/>
  <path d="M44 205h26l2-53m-1 53h36" fill="none" stroke="#1c2839" stroke-width="11" stroke-linecap="round"/>
  <path d="M48 211H26m80 0h22" fill="none" stroke="#8a5a34" stroke-width="14" stroke-linecap="round"/>
  <path d="M46 84c-15 13-25 32-24 54" fill="none" stroke="#cf9264" stroke-width="14" stroke-linecap="round"/>
  <path d="M42 77c8-14 51-16 61 2l-7 75H48Z" fill="#b7503f" stroke="#6e332c" stroke-width="7" stroke-linejoin="round"/>
  <path d="M56 82c14-6 30-5 40 2" fill="none" stroke="#c96a54" stroke-width="4" stroke-linecap="round" opacity="0.7"/>
  <path d="M46 116h52" stroke="#e6b34a" stroke-width="9" stroke-linecap="round"/>
  <path d="M90 92c16 0 30-5 44-13" fill="none" stroke="#daa06f" stroke-width="15" stroke-linecap="round"/>
  <path d="M119 84c8-3 14-6 18-9" fill="none" stroke="#6e4a2c" stroke-width="15" stroke-linecap="round"/>
  <circle cx="136" cy="76" r="8" fill="#daa06f" stroke="#8a5a3a" stroke-width="2"/>
  <circle cx="72" cy="48" r="30" fill="#e0a878" stroke="#4f3540" stroke-width="6"/>
  <path d="M42 46c3-27 21-37 38-34 18 3 27 16 25 37-11-10-18-17-28-22-9 13-20 19-35 19Z" fill="#4a332f"/>
  <path d="M61 50h3m25 0h3" fill="none" stroke="#392f36" stroke-width="5" stroke-linecap="round"/>
  <path d="M67 63c5 3 10 3 15 0" fill="none" stroke="#8d4d4b" stroke-width="3" stroke-linecap="round"/>
</svg>
