<svg xmlns="http://www.w3.org/2000/svg" viewBox="0 0 144 220">
  <rect x="50" y="192" width="20" height="26" rx="9" fill="#7a4e33" stroke="#4d2f1e" stroke-width="5"/>
  <rect x="76" y="192" width="20" height="26" rx="9" fill="#7a4e33" stroke="#4d2f1e" stroke-width="5"/>
  <rect x="54" y="150" width="16" height="48" rx="7" fill="#3a4db0" stroke="#2a3684" stroke-width="4"/>
  <rect x="78" y="150" width="16" height="48" rx="7" fill="#3a4db0" stroke="#2a3684" stroke-width="4"/>
  <path d="M46 158 Q40 108 62 90 L86 90 Q108 108 102 158 Z" fill="#5b6ee1" stroke="#38408f" stroke-width="6" stroke-linejoin="round"/>
  <path d="M67 94 Q74 92 81 94 L77 132 H71 Z" fill="#7d8bec" opacity=".7"/>
  <rect x="50" y="144" width="48" height="13" rx="6" fill="#C98A4B" stroke="#8a5a2e" stroke-width="4"/>
  <rect x="66" y="144" width="14" height="13" rx="3" fill="#F4B860" stroke="#8a5a2e" stroke-width="3"/>
  <path d="M92 100 L138 74" stroke="#F2C79A" stroke-width="13" stroke-linecap="round"/>
  <circle cx="140" cy="72" r="7" fill="#F2C79A" stroke="#7a4e33" stroke-width="3"/>
  <circle cx="72" cy="52" r="30" fill="#F2C79A" stroke="#7a4e33" stroke-width="6"/>
  <path d="M42 48 Q44 20 72 20 Q100 20 100 46 Q86 34 68 36 Q54 38 42 48 Z" fill="#E07A4E" stroke="#a34e2a" stroke-width="5" stroke-linejoin="round"/>
  <path d="M44 44 Q28 26 15 32 Q30 32 38 48 Z" fill="#FFE79A" stroke="#d9a53a" stroke-width="3" stroke-linejoin="round"/>
  <circle cx="68" cy="52" r="4" fill="#33232b"/>
  <circle cx="83" cy="52" r="4" fill="#33232b"/>
  <circle cx="61" cy="60" r="3.6" fill="#f39a9a" opacity=".8"/>
  <circle cx="88" cy="60" r="3.6" fill="#f39a9a" opacity=".8"/>
  <path d="M70 62 Q75 66 80 62" fill="none" stroke="#8d4d4b" stroke-width="3" stroke-linecap="round"/>
  <path d="M54 36 Q60 28 72 28" fill="none" stroke="#fff" stroke-width="3" stroke-linecap="round" opacity=".4"/>
</svg>
