<svg xmlns="http://www.w3.org/2000/svg" viewBox="0 0 144 220">
  <path d="M39 205c4-27 5-57 12-84h45c8 30 10 58 12 84" fill="#30445d" stroke="#243246" stroke-width="7" stroke-linejoin="round"/>
  <path d="M44 205h26l2-53m-1 53h36" fill="none" stroke="#1f2c3c" stroke-width="12" stroke-linecap="round"/>
  <path d="M48 211H28m78 0h22" fill="none" stroke="#9d5d3b" stroke-width="14" stroke-linecap="round"/>
  <path d="M44 83c-15 13-25 32-24 54" fill="none" stroke="#d99b6c" stroke-width="15" stroke-linecap="round"/>
  <path d="M96 86c20 17 25 35 18 55" fill="none" stroke="#d99b6c" stroke-width="14" stroke-linecap="round"/>
  <path d="M42 77c8-14 51-16 61 2l-7 75H48Z" fill="#b84d3f" stroke="#713a38" stroke-width="7" stroke-linejoin="round"/>
  <path d="M46 115h51" stroke="#efc46f" stroke-width="8" stroke-linecap="round"/>
  <circle cx="72" cy="48" r="32" fill="#e1a173" stroke="#4f3540" stroke-width="7"/>
  <path d="M43 45c3-27 21-37 38-34 18 3 27 16 25 37-11-10-18-17-28-22-9 13-20 19-35 19Z" fill="#583a39"/>
  <path d="M55 51h3m27 0h3" stroke="#392f36" stroke-width="6" stroke-linecap="round"/>
  <path d="M65 67c5 3 10 3 15 0" fill="none" stroke="#8d4d4b" stroke-width="3" stroke-linecap="round"/>
  <path d="M102 72l27 30-19 8-19-28Z" fill="#455b69" stroke="#273842" stroke-width="5" stroke-linejoin="round"/>
</svg>
