<svg xmlns="http://www.w3.org/2000/svg" viewBox="0 0 180 220">
  <path d="M90 150 68 208m22-58 24 58m-46-18h44" fill="none" stroke="#7a5a3c" stroke-width="10" stroke-linecap="round" stroke-linejoin="round"/>
  <path d="M64 190h52" fill="none" stroke="#C98A4B" stroke-width="9" stroke-linecap="round"/>
  <circle cx="90" cy="90" r="84" fill="#F1E4BD" stroke="#7a5a3c" stroke-width="7"/>
  <circle cx="90" cy="90" r="73" fill="#4FA85C"/>
  <circle cx="90" cy="90" r="61" fill="#F1E4BD"/>
  <circle cx="90" cy="90" r="48" fill="#79AEBC"/>
  <circle cx="90" cy="90" r="32" fill="#FF5C8A"/>
  <circle cx="90" cy="90" r="16" fill="#FFF3B0" stroke="#f0b23a" stroke-width="2"/>
  <g stroke="#FFE79A" stroke-width="5" stroke-linecap="round">
    <path d="M90 8v16M90 156v16M8 90h16M156 90h16"/>
    <path d="M31 31l11 11M149 31l-11 11M31 149l11-11M149 149l-11-11"/>
  </g>
  <path d="M40 52c10-22 30-38 56-44" fill="none" stroke="#fff" stroke-width="4" stroke-linecap="round" opacity=".3"/>
</svg>
